<svg width="20" height="20" viewBox="0 0 20 20" fill="none" xmlns="http://www.w3.org/2000/svg">
<path fill-rule="evenodd" clip-rule="evenodd" d="M3.33332 1.66675H16.6667C17.5833 1.66675 18.3333 2.41675 18.3333 3.33341V16.6667C18.3333 17.5834 17.5833 18.3334 16.6667 18.3334H3.33332C2.41666 18.3334 1.66666 17.5834 1.66666 16.6667V3.33341C1.66666 2.41675 2.41666 1.66675 3.33332 1.66675ZM3.33332 16.6667H6.66666V13.3334H3.33332V16.6667ZM6.66666 11.6667H3.33332V8.33341H6.66666V11.6667ZM3.33332 6.66675H6.66666V3.33341H3.33332V6.66675ZM11.6667 16.6667H8.33332V13.3334H11.6667V16.6667ZM8.33332 11.6667H11.6667V8.33341H8.33332V11.6667ZM11.6667 6.66675H8.33332V3.33341H11.6667V6.66675ZM13.3333 16.6667H16.6667V13.3334H13.3333V16.6667ZM16.6667 11.6667H13.3333V8.33341H16.6667V11.6667ZM13.3333 6.66675H16.6667V3.33341H13.3333V6.66675Z" fill="#404040"/>
</svg>
