<svg id="Layer_1" enable-background="new 0 0 496.047 496.047" height="512" viewBox="0 0 496.047 496.047" width="512" xmlns="http://www.w3.org/2000/svg"><path d="m154.647 115.633c-2.877 2.515-4.689 4.451-10.97 10.74-12.41 12.41-19.24 28.9-19.24 46.45v9.39h-91.1c-28.818 0-44.828-34.998-23.59-56.37 6.45-6.49 15.31-10.21 24.32-10.21z"/><path d="m496.047 248.023v66.06c0 36.57-29.75 66.33-66.32 66.33h-76.15c-29.69 0-58.81-8.13-84.2-23.51-28.09-17.04-59.74-26.04-91.52-26.04h-61.94c-4.739 0-8.52-3.824-8.52-8.52 0-34.207 25.882-62.253 58.95-65.91 5.077-.561.288-.41 81.7-.41 27.097 0 49.082-21.831 49.29-48.94.085-13.397-10.734-24.87-24.63-24.87h-57.69c-4.42 0-8 3.59-8 8v49.81c-33.705 0-46.945-1.66-66.58 7.03v-74.23c0-13.08 5.3-25.89 14.55-35.14 8.656-8.645 19.952-22.05 42.63-22.05h166.04c73.188 0 132.39 59.207 132.39 132.39z"/></svg>