<svg id="Capa_1" enable-background="new 0 0 512 512" height="512" viewBox="0 0 512 512" width="512" xmlns="http://www.w3.org/2000/svg"><g><path d="m70.922 112.491c-5.753 4.36-7.582 12.2-4.356 18.657l24.418 49.852h60.033l24.412-49.843c3.23-6.462 1.399-14.308-4.36-18.671l-35.069-26.577v-25.909h15c8.291 0 15-6.709 15-15s-6.709-15-15-15h-15v-15c0-8.291-6.709-15-15-15s-15 6.709-15 15v15h-15c-8.291 0-15 6.709-15 15s6.709 15 15 15h15v25.909z"/><path d="m482 452h-181c-16.569 0-30 13.431-30 30v15c0 8.284 6.716 15 15 15h211c8.284 0 15-6.716 15-15v-15c0-16.569-13.431-30-30-30z"/><path d="m408.139 92.216c-4.453-.571-8.701.688-11.953 3.516-3.311 2.856-5.186 6.987-5.186 11.338v13.93h-22.5c-4.717 0-9.17 2.227-12.012 6.006l-57.1 76.128c-14.745 19.722-8.112 48.005 13.945 59.033 10.957 5.449 24.375 5.449 35.332 0l42.335-21.167-26.367 26.367c-41.569 41.581-63.605 97.23-63.409 154.623l180.776.01c.095 0 .183.027.278.027-18.689-37.638-19.276-83.393-.688-121.233l18.193-36.914c8.115-16.523 12.217-34.306 12.217-52.88 0-59.297-45.238-110.361-103.861-118.784zm-17.139 103.784c-8.284 0-15-6.716-15-15 0-8.286 6.716-15 15-15s15 6.714 15 15c0 8.284-6.716 15-15 15z"/><path d="m211 452h-181c-16.569 0-30 13.431-30 30v15c0 8.284 6.716 15 15 15h211c8.284 0 15-6.716 15-15v-15c0-16.569-13.431-30-30-30z"/><path d="m91 211v26.836c0 1.06-.106 2.106-.115 3.164h60.231c-.009-1.058-.115-2.104-.115-3.164v-26.836z"/><path d="m204.602 422c-23.417-36.914-39.089-78.563-47.098-121h8.496c8.284 0 15-6.716 15-15 0-8.286-6.716-15-15-15-5.357 0-93.484 0-90 0-8.284 0-15 6.714-15 15 0 8.284 6.716 14.99 15 14.99h8.496c-8.009 42.437-24.681 84.096-48.098 121.01z"/></g></svg>