<svg id="Capa_1" enable-background="new 0 0 512 512" height="512" viewBox="0 0 512 512" width="512" xmlns="http://www.w3.org/2000/svg"><g><path d="m115.99 492.605c2.812 2.812 6.621 4.395 10.605 4.395 5.698 0 226.805 0 219.404 0 8.291 0 15-6.709 15-15s-6.709-15-15-15h-94.072l4.087-4.087-190.933-190.922-51.92 53.036c-17.549 17.549-17.549 46.099 0 63.647z"/><circle cx="406" cy="482" r="15"/><circle cx="466" cy="482" r="15"/><g><path d="m498.838 155.325-126.178-127.193c-17.578-17.52-46.113-17.505-63.633.015l-52.993 52.969 190.462 190.462 52.342-52.605c17.549-17.549 17.549-46.099 0-63.648z"/><path d="m234.816 102.324-148.524 148.456 190.934 190.922 148.111-148.858z"/></g></g></svg>