<svg fill='#00a0e3' height="491pt" viewBox="0 0 491 491.99878" width="491pt" xmlns="http://www.w3.org/2000/svg"><path d="m460.355469 278.234375c-24.242188-9.945313-52.097657-.199219-64.851563 22.695313l-43.410156-17.878907c1.722656-11.390625-4.558594-22.484375-15.210938-26.871093-10.652343-4.386719-22.921874-.933594-29.722656 8.367187l-45.113281-18.582031 45.039063-18.761719c6.847656 9.25 19.121093 12.640625 29.742187 8.214844 10.625-4.425781 16.863281-15.527344 15.117187-26.902344l43.324219-18.046875c13.371094 23.925781 43.082031 33.273438 67.742188 21.3125 24.660156-11.960938 35.714843-41.078125 25.207031-66.390625-10.503906-25.3125-38.929688-38.042969-64.8125-29.023437-25.882812 9.019531-40.238281 36.660156-32.738281 63.019531l-43.34375 18.054687c-6.847657-9.257812-19.125-12.648437-29.753907-8.222656-10.628906 4.425781-16.867187 15.535156-15.113281 26.914062l-45.023437 18.753907 18.570312-45.085938c1.230469.1875 2.46875.28125 3.710938.28125 10.832031.015625 20.441406-6.941406 23.808594-17.238281 3.371093-10.292969-.265626-21.582031-9.007813-27.976562l17.890625-43.4375c19.070312 5.371093 39.535156-.636719 52.675781-15.460938 13.140625-14.828125 16.648438-35.863281 9.03125-54.152344-8.707031-20.910156-30.011719-33.714844-52.5625-31.589844-22.550781 2.128907-41.089843 18.691407-45.730469 40.859376-4.644531 22.171874 5.691407 44.777343 25.492188 55.773437l-17.878906 43.410156c-11.390625-1.71875-22.484375 4.558594-26.871094 15.210938-4.390625 10.652343-.933594 22.925781 8.363281 29.726562l-18.578125 45.109375-18.761718-45.035156c9.25-6.847656 12.640624-19.121094 8.214843-29.746094s-15.527343-16.859375-26.902343-15.113281l-18.054688-43.339844c23.953125-13.417969 33.285156-43.191406 21.277344-67.882812-12.011719-24.6875-41.191406-35.730469-66.535156-25.171875-25.347657 10.558594-38.0625 39.046875-28.992188 64.960937 9.070312 25.917969 36.777344 40.261719 63.175781 32.707031l18.054688 43.347657c-8.695313 6.429687-12.277344 17.710937-8.886719 27.980469 3.390625 10.265624 12.992188 17.195312 23.804688 17.179687 1.261718 0 2.523437-.097656 3.773437-.289063l18.753906 45.019532-45.085937-18.570313c1.71875-11.390625-4.558594-22.484375-15.210938-26.875-10.652344-4.386719-22.925781-.933593-29.726562 8.367188l-43.441406-17.890625c7.375-26.320313-7.050782-53.828125-32.902344-62.722656-25.847656-8.898438-54.148438 3.90625-64.53125 29.191406-10.386719 25.285156.746094 54.285156 25.382812 66.125 24.640625 11.839844 54.238282 2.414062 67.492188-21.492188l43.398437 17.875c-1.71875 11.390625 4.558594 22.484375 15.210938 26.871094 10.652343 4.386719 22.925781.933594 29.726562-8.367188l45.109375 18.582032-45.035156 18.761718c-6.847656-9.25-19.121094-12.640624-29.746094-8.214843-10.621094 4.425781-16.859375 15.527343-15.113281 26.902343l-43.335937 18.050782c-13.390626-23.878906-43.078126-33.175782-67.695313-21.195313-24.617187 11.976563-35.625 41.074219-25.097656 66.347657 10.527343 25.269531 38.933593 37.949218 64.777343 28.910156 25.839844-9.039063 40.148438-36.660156 32.628907-62.984375l43.351562-18.058594c6.84375 9.257813 19.121094 12.65625 29.75 8.226563 10.628907-4.425782 16.863281-15.535157 15.113281-26.914063l45.019532-18.753906-18.574219 45.089843c-11.390625-1.71875-22.484375 4.558594-26.871094 15.210938s-.933593 22.925781 8.363281 29.726562l-17.886718 43.429688c-26.355469-7.414062-53.917969 7.011719-62.847656 32.890625-8.933594 25.875 3.863281 54.230469 29.175781 64.652344 25.316406 10.421875 54.367187-.703125 66.246093-25.367188 11.875-24.667969 2.457032-54.316406-21.476562-67.605469l17.878906-43.410156c1.230469.1875 2.472656.28125 3.714844.28125 10.828125.011719 20.4375-6.945312 23.804688-17.238281 3.367187-10.292969-.269532-21.585937-9.011719-27.976563l18.582031-45.113281 18.761719 45.035157c-9.28125 6.835937-12.695313 19.125-8.261719 29.765624 4.433594 10.636719 15.558594 16.871094 26.945312 15.09375l18.054688 43.339844c-23.875 13.390625-33.167969 43.074219-21.1875 67.691406 11.976562 24.613282 41.074219 35.617188 66.34375 25.089844 25.269531-10.53125 37.945312-38.9375 28.902344-64.773437-9.039063-25.839844-36.660156-40.148438-62.980469-32.625l-18.058594-43.34375c9.257813-6.847657 12.652344-19.125 8.226563-29.753907-4.429688-10.628906-15.535156-16.867187-26.914063-15.113281l-18.753906-45.023437 45.085937 18.570312c-1.722656 11.390625 4.558594 22.488282 15.210938 26.875 10.652344 4.386719 22.921875.933594 29.722656-8.367187l43.433594 17.890625c-7.515625 26.722656 7.421875 54.613281 33.832031 63.160156 26.414063 8.550781 54.859375-5.296875 64.429688-31.355469 9.566406-26.0625-3.167969-55.027343-28.835938-65.597656zm0 0"/></svg>