<svg id="Capa_1" enable-background="new 0 0 512 512" height="512" viewBox="0 0 512 512" width="512" xmlns="http://www.w3.org/2000/svg"><path d="m497 414.496h-22.5v-278.414c0-13.677-11.126-24.804-24.801-24.804h-40.665c-13.675 0-24.8 11.128-24.8 24.804v278.414h-37v-112.985c0-13.677-11.126-24.804-24.801-24.804h-40.665c-13.675 0-24.801 11.128-24.801 24.804v112.985h-36.997v-53.011c0-13.677-11.126-24.804-24.801-24.804h-40.665c-13.675 0-24.8 11.128-24.8 24.804v53.011h-22.5c-8.284 0-15 6.717-15 15.002s6.716 15.002 15 15.002h389.796c8.284 0 15-6.717 15-15.002s-6.716-15.002-15-15.002z"/><path d="m165.762 280.392c27.28 0 54.561-10.379 75.329-31.139 20.124-20.114 31.207-46.859 31.207-75.307s-11.083-55.193-31.207-75.308c-41.537-41.517-109.121-41.517-150.658 0-20.124 20.115-31.207 46.86-31.207 75.308 0 19.142 5.018 37.512 14.431 53.611l-65.69 65.661c-10.623 10.619-10.623 27.834 0 38.453s27.847 10.619 38.47 0l65.711-65.682c16.506 9.602 35.06 14.403 53.614 14.403zm-38.329-144.769c21.136-21.126 55.523-21.125 76.657 0 10.241 10.236 15.881 23.846 15.881 38.324 0 14.477-5.64 28.088-15.881 38.324-10.566 10.563-24.447 15.844-38.328 15.844s-27.762-5.281-38.329-15.843c-10.24-10.238-15.88-23.848-15.88-38.325 0-14.478 5.639-28.089 15.88-38.324z"/><path d="m182.883 191.048c4.57-4.569 7.088-10.643 7.088-17.102 0-6.46-2.517-12.533-7.088-17.101-9.442-9.44-24.803-9.437-34.243-.001-4.57 4.569-7.087 10.642-7.087 17.102s2.517 12.533 7.087 17.102c9.44 9.436 24.802 9.436 34.243 0z"/></svg>