<svg width="28" height="28" viewBox="0 0 28 28" fill="none" xmlns="http://www.w3.org/2000/svg">
<path d="M7.85714 0.571426L1 7.42857M7.85714 7.42857L1 0.571426" stroke="black"/>
<path d="M27.2857 0.571426L20.4286 7.42857M27.2857 7.42857L20.4286 0.571426" stroke="black"/>
<path d="M27.2857 10.8571L20.4286 17.7143M27.2857 17.7143L20.4286 10.8571" stroke="black"/>
<path d="M27.2857 20.5714L20.4286 27.4286M27.2857 27.4286L20.4286 20.5714" stroke="black"/>
<path d="M7.85714 10.8571L1 17.7143M7.85714 17.7143L1 10.8571" stroke="black"/>
<path d="M17.0714 3.71429C17.0714 5.52792 15.7233 6.92857 14.1429 6.92857C12.5624 6.92857 11.2143 5.52792 11.2143 3.71429C11.2143 1.90065 12.5624 0.5 14.1429 0.5C15.7233 0.5 17.0714 1.90065 17.0714 3.71429Z" stroke="black"/>
<path d="M17.0714 14C17.0714 15.8136 15.7233 17.2143 14.1429 17.2143C12.5624 17.2143 11.2143 15.8136 11.2143 14C11.2143 12.1864 12.5624 10.7857 14.1429 10.7857C15.7233 10.7857 17.0714 12.1864 17.0714 14Z" stroke="black"/>
<path d="M17.0714 24.2857C17.0714 26.0993 15.7233 27.5 14.1429 27.5C12.5624 27.5 11.2143 26.0993 11.2143 24.2857C11.2143 22.4721 12.5624 21.0714 14.1429 21.0714C15.7233 21.0714 17.0714 22.4721 17.0714 24.2857Z" stroke="black"/>
</svg>
