<svg width="128" height="128" viewBox="0 0 128 128" fill="none" xmlns="http://www.w3.org/2000/svg">
<path d="M73.1755 66.3145H69.562L68.2813 65.0795C72.7639 59.8651 75.4626 53.0955 75.4626 45.7313C75.4626 29.3105 62.1521 16 45.7313 16C29.3105 16 16 29.3105 16 45.7313C16 62.1521 29.3105 75.4626 45.7313 75.4626C53.0955 75.4626 59.8651 72.7639 65.0795 68.2813L66.3145 69.562V73.1755L89.1847 96L96 89.1847L73.1755 66.3145V66.3145ZM45.7313 66.3145C34.3419 66.3145 25.1481 57.1206 25.1481 45.7313C25.1481 34.3419 34.3419 25.1481 45.7313 25.1481C57.1206 25.1481 66.3145 34.3419 66.3145 45.7313C66.3145 57.1206 57.1206 66.3145 45.7313 66.3145Z" fill="#00A0E3"/>
</svg>
