<svg xmlns="http://www.w3.org/2000/svg" height="35px" viewBox="0 0 240.000000 240.000000">
<g transform="translate(0.000000,240.000000) scale(0.100000,-0.100000)" fill="#ccc" stroke="none">
<path d="M603 1588 c-67 -67 -126 -130 -129 -140 -8 -27 22 -68 49 -68 16 0 63 40 155 133 73 74 132 138 132 143 0 5 -7 20 -16 32 -31 45 -58 31 -191 -100z"/>
<path d="M1610 1690 c-11 -11 -20 -28 -20 -37 0 -22 261 -283 283 -283 9 0 26 9 37 20 11 11 20 28 20 37 0 9 -60 77 -133 150 -73 73 -141 133 -150 133 -9 0 -26 -9 -37 -20z"/>
<path d="M940 1617 c-52 -19 -104 -39 -115 -45 -11 -6 -66 -57 -123 -114 l-102 -103 74 -74 c65 -64 76 -72 94 -62 62 33 132 -11 132 -83 0 -21 5 -26 25 -26 36 0 75 -42 75 -80 0 -25 4 -30 24 -30 32 0 73 -35 81 -69 5 -24 12 -30 45 -35 54 -8 73 -39 68 -108 -3 -47 -1 -53 23 -67 24 -13 29 -13 53 2 39 26 35 64 -14 112 -22 21 -40 45 -40 51 0 33 27 21 90 -40 38 -37 77 -66 88 -66 20 0 62 43 62 62 0 6 -29 40 -65 77 -36 37 -65 73 -65 79 0 32 29 17 100 -52 89 -87 119 -96 147 -41 16 29 2 53 -71 125 -36 35 -66 70 -66 77 0 30 24 19 85 -37 68 -63 91 -72 118 -42 37 41 25 60 -156 240 -95 94 -180 172 -190 172 -10 0 -56 -36 -103 -80 -80 -76 -98 -86 -149 -82 -56 5 -95 53 -95 118 0 33 10 46 90 128 50 51 90 95 90 99 0 8 -68 27 -95 27 -11 0 -63 -15 -115 -33z"/>
<path d="M1254 1626 c-30 -16 -87 -63 -142 -120 -97 -99 -110 -127 -74 -159 35 -32 64 -21 137 53 72 73 116 95 164 84 15 -4 85 -64 163 -142 l138 -137 75 75 75 75 -110 110 c-107 107 -112 111 -202 144 -126 46 -161 49 -224 17z"/>
<path d="M740 1148 c-53 -55 -62 -84 -32 -111 31 -28 55 -20 110 36 57 57 62 77 32 107 -31 31 -55 24 -110 -32z"/>
<path d="M839 1031 c-55 -54 -63 -90 -27 -115 35 -25 50 -20 106 37 55 56 64 83 34 110 -32 29 -62 20 -113 -32z"/>
<path d="M950 924 c-40 -37 -50 -53 -50 -78 0 -72 56 -76 121 -8 58 59 63 74 38 106 -29 37 -53 32 -109 -20z"/>
<path d="M1069 823 c-57 -54 -69 -85 -44 -113 30 -34 66 -25 118 28 53 54 61 91 25 116 -33 24 -44 20 -99 -31z"/>
</g>
</svg>