<svg width="20" height="20" viewBox="0 0 20 20" fill="none" xmlns="http://www.w3.org/2000/svg">
<path fill-rule="evenodd" clip-rule="evenodd" d="M10.5 8.87508V7.25008C8.70704 7.25008 7.24996 8.70716 7.24996 10.5001C7.24996 11.0472 7.38538 11.5672 7.62913 12.0167L6.83829 12.8076C6.41579 12.1413 6.16663 11.3505 6.16663 10.5001C6.16663 8.10591 8.10579 6.16675 10.5 6.16675V4.54175L12.6666 6.70841L10.5 8.87508ZM13.3708 8.98342L14.1616 8.19259C14.5841 8.85884 14.8333 9.64967 14.8333 10.5001C14.8333 12.8943 12.8941 14.8334 10.5 14.8334V16.4584L8.33329 14.2918L10.5 12.1251V13.7501C12.2929 13.7501 13.75 12.293 13.75 10.5001C13.75 9.953 13.6091 9.43842 13.3708 8.98342Z" fill="#00a0e3" fill-opacity="0.84"/>
</svg>
